<?xml version="1.0" standalone="no"?>
<!DOCTYPE svg PUBLIC "-//W3C//DTD SVG 20010904//EN"
 "http://www.w3.org/TR/2001/REC-SVG-20010904/DTD/svg10.dtd">
<svg version="1.0" xmlns="http://www.w3.org/2000/svg"
 width="270.000000pt" height="270.000000pt" viewBox="0 0 270.000000 270.000000"
 preserveAspectRatio="xMidYMid meet">
<metadata>
Created by potrace 1.11, written by Peter Selinger 2001-2013
</metadata>
<g transform="translate(0.000000,270.000000) scale(0.100000,-0.100000)"
fill="#000000" stroke="none">
<path d="M1410 2675 c0 -14 0 -28 0 -32 1 -4 -23 -13 -51 -20 -58 -15 -124
-63 -152 -112 -21 -36 -26 -33 72 -33 51 0 56 2 92 45 47 54 83 70 148 65 28
-1 51 -2 51 0 0 7 -77 36 -110 41 -32 6 -35 9 -34 39 0 17 -3 32 -8 32 -4 0
-8 -11 -8 -25z"/>
<path d="M1201 2450 c-5 -3 -8 -90 -9 -193 0 -181 -2 -200 -23 -203 -5 -1 -13
-2 -19 -3 -16 -2 -11 -38 6 -45 10 -4 14 -16 12 -38 l-3 -33 -62 0 c-34 -1
-65 -4 -69 -8 -4 -4 -8 -51 -9 -105 -1 -53 -3 -102 -6 -108 -2 -6 12 -34 31
-62 l35 -52 351 0 351 0 39 48 39 47 -3 116 c-3 111 -5 117 -25 121 -12 2 -91
3 -174 3 -84 0 -153 1 -153 4 0 2 9 19 21 37 21 34 21 34 100 34 71 0 79 2 79
19 0 20 -25 35 -41 25 -12 -7 -11 -10 -14 201 -2 99 -3 185 -4 190 -1 11 -434
16 -450 5z m104 -122 c1 -85 0 -87 -51 -86 l-44 1 0 78 0 78 38 3 c20 2 41 0
46 -4 5 -4 10 -36 11 -70z m110 -5 l0 -78 -46 -2 -46 -2 -2 79 -2 80 48 0 49
0 -1 -77z m112 0 l-2 -78 -45 0 -45 0 -3 78 -3 77 50 0 50 0 -2 -77z m111 -2
l1 -80 -47 2 -47 2 -1 70 c-1 39 0 73 3 78 2 4 24 7 47 7 l43 0 1 -79z m-333
-162 c2 -85 -5 -97 -55 -96 l-40 1 0 76 c0 42 2 79 5 81 2 3 24 5 47 4 l42 -1
1 -65z m110 -14 l0 -80 -43 -1 c-24 0 -46 4 -49 9 -9 15 -3 141 8 147 5 3 26
6 46 5 l38 0 0 -80z m114 3 c-2 -82 -3 -84 -59 -84 l-35 1 -2 75 c-1 41 2 77
7 80 5 3 27 5 50 5 l41 0 -2 -77z m99 68 c8 -5 11 -30 10 -79 l-3 -72 -45 0
-45 0 -1 73 c0 65 2 75 19 81 24 9 48 8 65 -3z m-458 -391 c0 -105 6 -97 -75
-97 -19 0 -39 0 -43 1 -12 1 -10 174 1 182 5 4 33 7 63 8 l54 1 0 -95z m511
77 c5 -60 4 -149 -2 -162 -6 -12 -27 -15 -106 -14 l-98 1 2 63 c2 35 7 78 13
96 l11 32 89 0 c77 0 90 -2 91 -16z m156 5 c8 -14 12 -177 4 -178 -3 0 -36 -1
-73 -2 l-68 -2 1 90 c0 49 3 93 6 98 7 11 123 6 130 -6z"/>
<path d="M830 1678 c-160 -99 -305 -283 -364 -464 -34 -103 -41 -161 -40 -304
2 -125 14 -184 66 -321 23 -62 91 -170 101 -160 5 5 -2 25 -17 50 -34 54 -75
178 -90 271 -19 120 -11 228 26 354 62 214 174 357 387 493 6 3 -20 103 -27
103 -4 0 -23 -10 -42 -22z"/>
<path d="M1922 1554 c-2 -19 -9 -55 -18 -79 -15 -47 -11 -64 28 -108 42 -49
114 -218 124 -292 2 -16 6 -41 9 -55 7 -33 7 -188 0 -220 -3 -14 -8 -38 -11
-55 -13 -74 -74 -231 -105 -269 -5 -6 -29 -39 -54 -72 -25 -34 -63 -78 -86
-99 -22 -20 -39 -38 -36 -41 2 -2 47 -6 100 -8 114 -5 118 -2 195 101 121 166
173 317 177 518 5 210 -52 393 -172 556 -49 67 -131 159 -142 159 -4 0 -8 -16
-9 -36z"/>
<path d="M1089 1555 c-2 -16 -6 -37 -34 -220 -15 -93 -28 -181 -30 -195 -1
-14 -8 -55 -15 -92 -12 -69 -9 -111 5 -73 27 70 121 146 236 191 l69 27 0 48
c0 61 18 75 94 73 85 -3 106 -10 106 -39 0 -30 19 -32 86 -9 113 38 173 109
179 211 7 98 40 90 -350 89 -232 0 -345 -4 -346 -11z"/>
<path d="M1801 1177 c-23 -28 -138 -75 -226 -92 -49 -9 -97 -18 -105 -20 -41
-8 -151 -50 -200 -76 -113 -60 -286 -211 -315 -273 -13 -28 -39 -116 -51 -173
-2 -12 -9 -34 -14 -48 -14 -38 -12 -54 6 -51 10 2 51 -3 93 -9 62 -10 78 -10
89 2 8 7 30 26 50 41 21 15 39 29 42 32 31 34 250 155 355 196 124 49 201 113
250 209 28 57 28 56 39 125 18 117 13 168 -13 137z"/>
<path d="M677 374 c-1 -1 -29 -5 -62 -8 -191 -18 -399 -153 -504 -327 -28 -47
-21 -48 65 -14 196 78 435 91 636 34 23 -7 48 -16 53 -19 6 -4 33 -15 61 -24
46 -15 114 -16 650 -14 535 3 603 5 634 20 19 9 58 26 85 38 28 11 71 31 96
43 46 22 47 23 45 67 -1 34 -5 44 -16 42 -247 -57 -304 -66 -460 -65 -82 0
-212 9 -256 17 -12 3 -39 7 -60 10 -64 10 -234 53 -314 80 -80 26 -96 28 -52
5 15 -7 43 -24 62 -36 65 -42 224 -104 330 -130 88 -22 130 -26 262 -27 86 0
155 -2 154 -4 -11 -11 -116 -22 -211 -22 -207 -1 -396 55 -602 178 -111 66
-253 120 -370 141 -55 10 -219 21 -226 15z"/>
</g>
</svg>
