<svg style="" width="34.000000" height="34.000000" version="1.1" xmlns="http://www.w3.org/2000/svg">
<path d="M11.322266 25.500000 C10.126947 25.500000 9.119796 25.909501 8.300781 26.728516 C7.481767 27.547530 7.072266 28.554682 7.072266 29.750000 C7.072266 30.967454 7.481767 31.980139 8.300781 32.788086 C9.119796 33.596033 10.126947 34.000000 11.322266 34.000000 C12.539720 34.000000 13.552405 33.596033 14.360352 32.788086 C15.168298 31.980139 15.572266 30.967454 15.572266 29.750000 C15.572266 28.554682 15.168298 27.547530 14.360352 26.728516 C13.552405 25.909501 12.539720 25.500000 11.322266 25.500000 Z M11.322266 31.177734 C10.901691 31.177734 10.564129 31.050457 10.309570 30.795898 C10.055012 30.541340 9.927734 30.192711 9.927734 29.750000 C9.927734 29.329425 10.055012 28.991863 10.309570 28.737305 C10.564129 28.482746 10.901691 28.355469 11.322266 28.355469 C11.764976 28.355469 12.113605 28.482746 12.368164 28.737305 C12.622723 28.991863 12.750000 29.329425 12.750000 29.750000 C12.750000 30.192711 12.622723 30.541340 12.368164 30.795898 C12.113605 31.050457 11.764976 31.177734 11.322266 31.177734 Z M28.322266 25.500000 C27.126947 25.500000 26.119796 25.909501 25.300781 26.728516 C24.481767 27.547530 24.072266 28.554682 24.072266 29.750000 C24.072266 30.967454 24.481767 31.980139 25.300781 32.788086 C26.119796 33.596033 27.126947 34.000000 28.322266 34.000000 C29.539720 34.000000 30.552405 33.596033 31.360352 32.788086 C32.168298 31.980139 32.572266 30.967454 32.572266 29.750000 C32.572266 28.554682 32.168298 27.547530 31.360352 26.728516 C30.552405 25.909501 29.539720 25.500000 28.322266 25.500000 Z M28.322266 31.177734 C27.901691 31.177734 27.564129 31.050457 27.309570 30.795898 C27.055012 30.541340 26.927734 30.192711 26.927734 29.750000 C26.927734 29.329425 27.055012 28.991863 27.309570 28.737305 C27.564129 28.482746 27.901691 28.355469 28.322266 28.355469 C28.764976 28.355469 29.113605 28.482746 29.368164 28.737305 C29.622723 28.991863 29.750000 29.329425 29.750000 29.750000 C29.750000 30.192711 29.622723 30.541340 29.368164 30.795898 C29.113605 31.050457 28.764976 31.177734 28.322266 31.177734 Z M12.451172 24.105469 L27.492188 24.105469 C27.492188 24.105469 27.497721 24.105469 27.508789 24.105469 C27.519857 24.105469 27.558593 24.105469 27.625000 24.105469 C28.621099 24.105469 29.517574 23.784508 30.314453 23.142578 C31.111332 22.500648 31.587239 21.681646 31.742188 20.685547 L34.000000 8.798828 C34.066407 8.577473 34.071940 8.367188 34.016602 8.167969 C33.961263 7.968749 33.856121 7.802735 33.701172 7.669922 C33.568359 7.448567 33.402345 7.299154 33.203125 7.221680 C33.003905 7.144205 32.793621 7.105469 32.572266 7.105469 L9.197266 7.105469 L8.798828 3.685547 C8.643879 2.623042 8.179040 1.743168 7.404297 1.045898 C6.629553 0.348629 5.677740 -0.000000 4.548828 -0.000000 L1.427734 -0.000000 C0.985024 -0.000000 0.636395 0.132811 0.381836 0.398438 C0.127277 0.664064 0.000000 1.007159 0.000000 1.427734 C0.000000 1.848309 0.127277 2.191405 0.381836 2.457031 C0.636395 2.722658 0.985024 2.855469 1.427734 2.855469 L4.548828 2.855469 C4.902997 2.855469 5.207355 2.977212 5.461914 3.220703 C5.716473 3.464194 5.876953 3.763019 5.943359 4.117188 L8.068359 20.419922 C8.289715 21.482427 8.793290 22.362301 9.579102 23.059570 C10.364913 23.756839 11.322260 24.105469 12.451172 24.105469 Z M30.878906 9.927734 L28.886719 20.121094 C28.820312 20.475262 28.659832 20.751952 28.405273 20.951172 C28.150715 21.150392 27.846356 21.250000 27.492188 21.250000 L12.318359 21.250000 C11.964191 21.250000 11.659832 21.128256 11.405273 20.884766 C11.150715 20.641275 10.990235 20.342450 10.923828 19.988281 L9.628906 9.927734 Z M34.000000 31.177734" style="fill:black"/>
</svg>