<svg style="" width="32.937500" height="32.937500" version="1.1" xmlns="http://www.w3.org/2000/svg">
<path d="M4.781250 4.847656 C8.013037 1.615869 11.908831 -0.000000 16.468750 -0.000000 C21.028669 -0.000000 24.913395 1.604802 28.123047 4.814453 C31.332698 8.024105 32.937500 11.908831 32.937500 16.468750 C32.937500 21.028669 31.332698 24.913395 28.123047 28.123047 C24.913395 31.332698 21.028669 32.937500 16.468750 32.937500 C11.908831 32.937500 8.024105 31.332698 4.814453 28.123047 C1.604802 24.913395 0.000000 21.028669 0.000000 16.468750 C0.000000 11.908831 1.593734 8.035172 4.781250 4.847656 Z M20.585938 8.101562 C19.434890 6.950515 18.062508 6.375000 16.468750 6.375000 C14.874992 6.375000 13.502610 6.950515 12.351562 8.101562 C11.200515 9.252610 10.625000 10.624992 10.625000 12.218750 C10.625000 13.812508 11.200515 15.184890 12.351562 16.335938 C13.502610 17.486985 14.874992 18.062500 16.468750 18.062500 C18.062508 18.062500 19.434890 17.486985 20.585938 16.335938 C21.736985 15.184890 22.312500 13.812508 22.312500 12.218750 C22.312500 10.624992 21.736985 9.252610 20.585938 8.101562 Z M6.773438 24.703125 C9.296888 27.713557 12.528626 29.218750 16.468750 29.218750 C20.408874 29.218750 23.640612 27.713557 26.164062 24.703125 C25.544268 23.507807 24.658860 22.544926 23.507812 21.814453 C22.356765 21.083981 21.072924 20.718750 19.656250 20.718750 C19.523437 20.718750 19.368490 20.740885 19.191406 20.785156 C18.261714 21.095054 17.354171 21.250000 16.468750 21.250000 C15.583329 21.250000 14.675786 21.095054 13.746094 20.785156 C13.569010 20.740885 13.414063 20.718750 13.281250 20.718750 C11.864576 20.718750 10.580735 21.083981 9.429688 21.814453 C8.278640 22.544926 7.393232 23.507807 6.773438 24.703125 Z M32.937500 29.218750" style="fill:black"/>
</svg>